<svg xmlns="http://www.w3.org/2000/svg" viewBox="0 0 77.66 66.48"><defs><style>.cls-1{fill:#444;}</style></defs><g id="Слой_1" data-name="Слой 1"><path class="cls-1" d="M37.62,39.12a1,1,0,0,1-.64-.23L15.65,21a1,1,0,0,1,.64-1.77H59A1,1,0,0,1,59.59,21L38.26,38.89A1,1,0,0,1,37.62,39.12ZM19.05,21.26,37.62,36.82,56.19,21.26Z"/><path class="cls-1" d="M59,48.4H16.29a1,1,0,0,1-1-1V20.61a1,1,0,0,1,1.65-.77l20.34,17h0l.16.1c.17,0,.09.07.29,0l.14-.07.07,0,20.35-17a1,1,0,0,1,1.06-.14,1,1,0,0,1,.58.91V47.4A1,1,0,0,1,59,48.4Zm-41.66-2H58V22.75L39.19,38.46l-.1.08a2.82,2.82,0,0,1-.59.32l-.17.06a2.31,2.31,0,0,1-1.44,0l-.15,0a2.25,2.25,0,0,1-.59-.33L36,38.45,17.29,22.75Zm21.25-8.7h0Z"/></g></svg>