<svg xmlns="http://www.w3.org/2000/svg" viewBox="0 0 77.66 66.48"><defs><style>.cls-1{fill:#444;}</style></defs><g id="Слой_1" data-name="Слой 1"><path class="cls-1" d="M45.92,52.89a7.24,7.24,0,0,1-3.49-1.12,44.78,44.78,0,0,1-7.35-4.88,53.12,53.12,0,0,1-9.49-10C22.26,32.33,19,27.44,18.8,22.2V22l.06-.18a15.87,15.87,0,0,1,4.63-6.65c.9-.77,3.65-3.12,6.16-.86a24.65,24.65,0,0,1,3.52,3.94l.18.25c1.18,1.64,2.95,4.12,2,6.43a5.68,5.68,0,0,1-2.23,2.34l-.45.31-.48.35c-2,1.39-2.32,1.86-1.49,3.2a48,48,0,0,0,5.35,6.52c.19.19.39.41.6.64,1,1.07,2.37,2.55,3.57,2.43.85-.08,1.7-1.21,2.45-2.21a12.92,12.92,0,0,1,1.21-1.44c2.54-2.95,6.18.05,7.92,1.49l.13.11c1.49,1.22,3.73,3.06,4.34,5.11a4,4,0,0,1-.41,3.2c-1.62,2.95-6.3,5.09-8.32,5.66A5.9,5.9,0,0,1,45.92,52.89ZM20.8,22.31c.26,4.62,3.3,9.14,6.4,13.39a51.7,51.7,0,0,0,9.14,9.64,43,43,0,0,0,7,4.66c1.51.79,2.24,1.13,3.65.73,2.26-.64,6-2.63,7.12-4.7a2.13,2.13,0,0,0,.25-1.67c-.44-1.46-2.48-3.14-3.7-4.14l-.12-.1c-2.4-2-4.11-2.94-5.21-1.66a10.79,10.79,0,0,0-1.06,1.27c-1,1.26-2.13,2.82-3.86,3-2.18.23-3.94-1.68-5.23-3.06-.19-.22-.38-.42-.56-.6A49.56,49.56,0,0,1,29,32.23c-1.91-3.11.35-4.73,2-5.91L31.5,26l.49-.35a3.9,3.9,0,0,0,1.51-1.44c.52-1.29-.87-3.23-1.79-4.51l-.18-.26a22.39,22.39,0,0,0-3.23-3.61c-.63-.57-1.48-.85-3.52.89A13.91,13.91,0,0,0,20.8,22.31Z"/></g></svg>