<svg xmlns="http://www.w3.org/2000/svg" viewBox="0 0 77.66 66.48"><defs><style>.cls-1{fill:#444;}</style></defs><g id="Слой_1" data-name="Слой 1"><path class="cls-1" d="M37.62,57.53A21.39,21.39,0,1,1,59,36.14,21.41,21.41,0,0,1,37.62,57.53Zm0-40.78A19.39,19.39,0,1,0,57,36.14,19.41,19.41,0,0,0,37.62,16.75Z"/><path class="cls-1" d="M37.62,53.45A17.31,17.31,0,1,1,54.93,36.14,17.34,17.34,0,0,1,37.62,53.45Zm0-32.62A15.31,15.31,0,1,0,52.93,36.14,15.33,15.33,0,0,0,37.62,20.83Z"/><path class="cls-1" d="M22.66,21.78l-1.77-2.55a1.81,1.81,0,0,1,.45-2.52l2.59-1.8a1.82,1.82,0,0,1,2.52.46l1.77,2.55-1.65,1.14-1.66-2.39-2.27,1.57,1.66,2.4Z"/><path class="cls-1" d="M52.36,21.78l-1.65-1.14,1.66-2.4L50.1,16.67l-1.66,2.39-1.65-1.14,1.78-2.55a1.77,1.77,0,0,1,1.16-.75,1.79,1.79,0,0,1,1.35.29l2.59,1.8a1.8,1.8,0,0,1,.45,2.52Z"/><path class="cls-1" d="M37.62,37.14H26.52a1,1,0,1,1,0-2H37.35l9.76-5.72a1,1,0,1,1,1,1.72L38.13,37A1,1,0,0,1,37.62,37.14Z"/></g></svg>